<svg width="34" height="35" viewBox="0 0 34 35" fill="none" xmlns="http://www.w3.org/2000/svg">
<path d="M11.3335 6.26522V23.2652C11.3335 24.0167 11.632 24.7373 12.1634 25.2687C12.6947 25.8 13.4154 26.0986 14.1668 26.0986H25.5002C26.2516 26.0986 26.9723 25.8 27.5036 25.2687C28.035 24.7373 28.3335 24.0167 28.3335 23.2652V10.8581C28.3334 10.4806 28.258 10.107 28.1115 9.75906C27.9651 9.41118 27.7506 9.09606 27.4807 8.83222L22.7844 4.23938C22.2551 3.72182 21.5442 3.43198 20.8039 3.43188H14.1668C13.4154 3.43188 12.6947 3.7304 12.1634 4.26175C11.632 4.7931 11.3335 5.51377 11.3335 6.26522V6.26522Z" stroke="#005477" stroke-width="2" stroke-linecap="round" stroke-linejoin="round"/>
<path d="M22.6667 26.0985V28.9318C22.6667 29.6833 22.3682 30.4039 21.8369 30.9353C21.3055 31.4666 20.5849 31.7651 19.8334 31.7651H8.50008C7.74863 31.7651 7.02797 31.4666 6.49661 30.9353C5.96526 30.4039 5.66675 29.6833 5.66675 28.9318V13.3485C5.66675 12.597 5.96526 11.8764 6.49661 11.345C7.02797 10.8136 7.74863 10.5151 8.50008 10.5151H11.3334" stroke="#005477" stroke-width="2" stroke-linecap="round" stroke-linejoin="round"/>
</svg>
