<svg width="725" height="1028" viewBox="0 0 725 1028" fill="none" xmlns="http://www.w3.org/2000/svg">
<ellipse cx="380.5" cy="539" rx="344.5" ry="373" fill="#54BAB9"/>
<circle cx="636" cy="763" r="54" fill="#005477"/>
<circle cx="50" cy="648" r="50" fill="#005477"/>
<ellipse cx="380.5" cy="373" rx="344.5" ry="373" fill="#008AB6"/>
<ellipse cx="372.5" cy="479" rx="344.5" ry="373" fill="#E9DAC1" fill-opacity="0.7"/>
<path fill-rule="evenodd" clip-rule="evenodd" d="M437.57 154.665C444.718 183.774 454.033 249.205 444.527 259.468H384.391C384.384 259.35 384.378 259.233 384.372 259.115C362.083 256.389 344.747 235.505 344.747 210.146V162.021C344.747 134.809 364.708 112.75 389.332 112.75H393.479C415.84 112.75 434.356 130.942 437.57 154.665Z" fill="#191847"/>
<path fill-rule="evenodd" clip-rule="evenodd" d="M368.102 200.957C358.546 188.561 352.079 173.371 353.16 156.35C356.274 107.307 418.049 118.096 430.066 142.849C442.082 167.601 440.654 230.388 425.124 234.812C418.93 236.576 405.737 232.255 392.308 223.31L400.737 289.208H350.968L368.102 200.957Z" fill="#D4A181"/>
<path fill-rule="evenodd" clip-rule="evenodd" d="M381.555 192.671C383.848 219.892 382.93 250.977 376.096 258.356H315.959C312.608 194.02 344.991 218.934 344.991 158.361C347.009 156.181 348.917 154.023 350.805 152.162L350.738 150.381C361.151 126.821 374.362 115.042 390.371 115.042C414.385 115.042 421.964 127.39 428.418 137.874C423.592 156.173 404.864 158.886 388.224 170.293C386.262 168.531 383.761 167.476 381.037 167.476C374.738 167.476 369.632 173.119 369.632 180.08C369.632 187.041 374.738 192.684 381.037 192.684C381.211 192.684 381.383 192.68 381.555 192.671Z" fill="#191847"/>
<path fill-rule="evenodd" clip-rule="evenodd" d="M270.94 704.202C320.687 719.579 363.606 727.267 399.699 727.267C435.792 727.267 469.317 715.427 500.274 691.747C451.592 675.964 411.501 668.073 380 668.073C348.499 668.073 312.146 680.116 270.94 704.202Z" fill="#1F28CF"/>
<path fill-rule="evenodd" clip-rule="evenodd" d="M442.764 749.431C442.284 748.634 441.879 747.767 441.558 746.828C434.908 727.395 328.4 517.746 317.789 479.417H437.703C445.77 508.559 482.081 691.441 487.191 727.929C503.315 785.484 536.512 971.885 540.75 984.798C545.208 998.383 520.123 1012.53 513.439 995.834C502.803 969.261 477.46 895.733 466.176 850.837C455.598 808.747 446.984 770.881 442.764 749.431Z" fill="#BA8B72"/>
<path fill-rule="evenodd" clip-rule="evenodd" d="M344.658 775.027C295.965 788.628 117.853 813.216 105.63 817.072C93.057 821.039 82.0325 792.398 97.5739 786.194C122.303 776.322 190.443 753.513 231.756 744.205C264.986 736.718 295.309 730.609 315.667 727.032C313.942 663.835 306.058 512.173 311.226 479.417H417.326C412.371 510.828 370.482 740.02 362.696 762.961C360.226 771.152 352.853 774.771 344.658 775.027Z" fill="#D4A181"/>
<path fill-rule="evenodd" clip-rule="evenodd" d="M99.5766 778.769C92.9133 777.556 88.0213 777.272 84.9009 777.917C81.1056 778.7 75.6689 780.518 68.5908 783.37C69.2975 788.063 75.6492 830.248 87.6457 909.924C98.3388 911.107 103.558 908.071 103.305 900.818C103.051 893.564 102.899 887.527 102.849 882.705L118.588 818.805C118.891 817.575 118.214 816.347 117.077 816.062C117.057 816.057 117.038 816.052 117.018 816.048L107.846 814.043C103.988 808.077 101.75 803.043 101.133 798.942C100.631 795.61 101.2 790.748 102.841 784.356L102.841 784.356C103.47 781.903 102.141 779.431 99.8726 778.834C99.7748 778.809 99.6761 778.787 99.5766 778.769Z" fill="#005477"/>
<path fill-rule="evenodd" clip-rule="evenodd" d="M505.827 993.671C503.507 1000.52 502.347 1005.64 502.347 1009.03C502.347 1013.17 502.97 1019.2 504.216 1027.13C508.554 1027.13 547.541 1027.13 621.176 1027.13C624.215 1016.02 622.461 1010.03 615.912 1009.14C609.364 1008.26 603.924 1007.46 599.593 1006.74L545.231 979.96C544.185 979.445 542.959 979.964 542.493 981.12C542.485 981.14 542.477 981.16 542.47 981.18L538.975 990.547C532.913 993.673 527.987 995.236 524.197 995.236C521.118 995.236 516.865 993.861 511.439 991.113L511.439 991.113C509.357 990.058 506.895 991.068 505.941 993.369C505.9 993.468 505.862 993.569 505.827 993.671Z" fill="#005477"/>
<path fill-rule="evenodd" clip-rule="evenodd" d="M311.568 479.417C358.323 464.634 402.562 464.634 444.284 479.417C458.8 552.607 494.071 581.656 500.274 693.868C429.768 732.583 342.674 666.257 270.095 704.012C249.358 651.203 278.389 524.023 311.568 479.417Z" fill="#2B44FF"/>
<path fill-rule="evenodd" clip-rule="evenodd" d="M512.716 388.462L594.591 376.12C610.969 366.053 626.036 359.237 639.793 355.673C643.664 355.549 649.822 357.104 640.648 365.556C631.474 374.008 622.166 383.357 623.8 387.868C625.435 392.379 633.966 390.701 635.38 397.638C636.322 402.264 622.475 403.015 593.84 399.893L527.406 429L512.716 388.462ZM255.516 409.406L300.925 409.594C251.133 533.421 225.171 598.255 223.039 604.096C218.24 617.238 228.394 637.252 232.736 648.008C218.594 655.002 220.101 629.101 202.26 638.274C185.976 646.646 173.589 661.816 154.775 648.987C152.462 647.41 149.927 641.471 156.052 636.831C171.309 625.269 193.296 605.034 196.267 598.373C200.319 589.29 220.068 526.301 255.516 409.406Z" fill="#D4A181"/>
<path fill-rule="evenodd" clip-rule="evenodd" d="M379.895 250.25L415.448 252.867C424.204 340.412 471.898 395.708 578.682 376.988L592.869 489.726C493.063 503.981 405.533 459.822 387.595 340.263C382.951 309.313 379.284 277.103 379.895 250.25Z" fill="#AFB9C5"/>
<path fill-rule="evenodd" clip-rule="evenodd" d="M362.355 238.828L416.222 252.462C416.222 354.852 445.736 420.178 460.874 495.458H315.392C313.342 521.471 312.084 548.207 311.428 575.667H202.496C227.181 430.522 279.281 318.23 358.798 238.792H362.326L362.355 238.828Z" fill="#C5CFD6"/>
<path fill-rule="evenodd" clip-rule="evenodd" d="M338.345 349.386C334.596 413.189 336.801 461.88 344.96 495.458H315.392C319.451 443.928 326.615 395.237 338.345 349.386V349.386Z" fill="black" fill-opacity="0.1"/>
</svg>
